<?xml version="1.0" encoding="iso-8859-1"?>
<!-- Uploaded to: SVG Repo, www.svgrepo.com, Generator: SVG Repo Mixer Tools -->
<svg fill="#000000" height="800px" width="800px" version="1.1" id="Layer_1" xmlns="http://www.w3.org/2000/svg" xmlns:xlink="http://www.w3.org/1999/xlink" 
	 viewBox="0 0 512 512" xml:space="preserve">
<g transform="translate(1 1)">
	<g>
		<g>
			<path d="M476.867-1H33.987C14.36-1-1,14.36-1,33.987v468.48c0,5.12,3.413,8.533,8.533,8.533H50.2h170.667h102.4h102.4H459.8
				h42.667c5.12,0,8.533-3.413,8.533-8.533V33.987C511,14.36,495.64-1,476.867-1z M451.267,280.6H58.733v-17.067h392.533V280.6z
				 M451.267,246.467H58.733V229.4h392.533V246.467z M58.733,297.667h392.533v17.067H58.733V297.667z M459.8,178.2H50.2v-34.133
				h409.6V178.2z M451.267,195.267v17.067H58.733v-17.067H451.267z M92.867,476.867c0-9.387,7.68-17.067,17.067-17.067
				S127,467.48,127,476.867s-7.68,17.067-17.067,17.067S92.867,486.253,92.867,476.867z M161.133,493.933
				c-9.387,0-17.067-7.68-17.067-17.067s7.68-17.067,17.067-17.067c9.387,0,17.067,7.68,17.067,17.067
				S170.52,493.933,161.133,493.933z M314.733,374.467H331.8v17.067h-17.067V374.467z M306.2,408.6h34.133
				c5.12,0,8.533-3.413,8.533-8.533v-25.6h17.067v51.2H357.4h-34.133h-34.133H280.6v-51.2h17.067v25.6
				C297.667,405.187,301.08,408.6,306.2,408.6z M365.933,442.733h8.533H383V459.8h-17.067V442.733z M272.067,442.733h8.533V459.8
				h-17.067v-17.067H272.067z M255,476.867h34.133c5.12,0,8.533-3.413,8.533-8.533v-25.6h17.067v51.2H229.4v-51.2h17.067v25.6
				C246.467,473.453,249.88,476.867,255,476.867z M331.8,493.933v-51.2h17.067v25.6c0,5.12,3.413,8.533,8.533,8.533h34.133
				c5.12,0,8.533-3.413,8.533-8.533v-25.6h17.067v51.2H331.8z M434.2,493.933V434.2c0-5.12-3.413-8.533-8.533-8.533h-34.133H383
				v-59.733c0-5.12-3.413-8.533-8.533-8.533h-34.133H306.2h-34.133c-5.12,0-8.533,3.413-8.533,8.533v59.733H255h-34.133
				c-5.12,0-8.533,3.413-8.533,8.533v59.733h-21.682c2.927-5.029,4.615-10.859,4.615-17.067c0-18.773-15.36-34.133-34.133-34.133
				c-10.17,0-19.333,4.514-25.6,11.63c-6.267-7.117-15.43-11.63-25.6-11.63c-18.773,0-34.133,15.36-34.133,34.133
				c0,6.208,1.688,12.037,4.615,17.067H58.733V331.8h392.533v162.133H434.2z M493.933,493.933h-25.6V323.267v-128
				c5.12,0,8.533-3.413,8.533-8.533v-51.2c0-5.12-3.413-8.533-8.533-8.533H41.667c-5.12,0-8.533,3.413-8.533,8.533v51.2
				c0,5.12,3.413,8.533,8.533,8.533v128v170.667h-25.6V33.987c0-10.24,7.68-17.92,17.92-17.92h442.027
				c10.24,0,17.92,7.68,17.92,17.92V493.933z"/>
			<path d="M374.467,33.133H135.533c-5.12,0-8.533,3.413-8.533,8.533V101.4c0,5.12,3.413,8.533,8.533,8.533h238.933
				c5.12,0,8.533-3.413,8.533-8.533V41.667C383,36.547,379.587,33.133,374.467,33.133z M365.933,92.867H144.067V50.2h221.867V92.867
				z"/>
		</g>
	</g>
</g>
</svg>